<svg width="138" height="143" viewBox="0 0 138 143" fill="none" xmlns="http://www.w3.org/2000/svg">
<rect width="138" height="143" rx="10" fill="url(#paint0_linear_2003_838)"/>
<path opacity="0.996" fill-rule="evenodd" clip-rule="evenodd" d="M55.4177 25.8195C56.0094 25.8195 56.6012 25.8195 57.1929 25.8195C57.2467 25.8195 57.3004 25.8195 57.3543 25.8195C57.6336 25.8983 57.9295 25.925 58.2419 25.8997C58.2957 25.873 58.3494 25.8462 58.4032 25.8195C58.6714 25.8886 58.9538 25.942 59.2505 25.9799C59.3575 25.9594 59.4382 25.906 59.4926 25.8195C59.5315 25.8955 59.5449 25.9757 59.5329 26.06C60.1295 26.1414 60.7212 26.2483 61.3081 26.3807C62.7016 26.8452 64.0733 27.3796 65.4234 27.984C65.7861 28.2847 66.1895 28.5252 66.6337 28.7055C66.9281 28.9588 67.2508 29.1726 67.602 29.3468C67.7186 29.4721 67.853 29.579 68.0055 29.6675C69.0515 30.4662 69.9929 31.3747 70.8297 32.3932C71.1128 32.7423 71.3549 33.1164 71.5559 33.5155C71.594 33.6282 71.6747 33.6817 71.7979 33.6758C72.6446 34.4455 73.3574 35.2739 73.9363 36.161C74.1252 35.8511 74.1655 35.8778 74.0573 36.2412C73.9497 36.2678 73.9497 36.2946 74.0573 36.3213C74.0775 36.4956 74.1582 36.6292 74.2994 36.7222C74.5542 37.3761 74.8231 38.0174 75.1063 38.6461C75.1465 39.0609 75.2541 39.4484 75.429 39.8086C75.3839 39.8667 75.3571 39.9335 75.3483 40.009C75.5594 41.1063 75.5594 42.2018 75.3483 43.2958C75.2708 43.4373 75.2439 43.5976 75.2677 43.7768C75.1683 44.6076 74.9531 45.4093 74.6221 46.1818C74.6321 46.2304 74.659 46.2571 74.7028 46.2619C74.2072 47.2466 73.6693 48.2086 73.089 49.1479C72.6153 49.7572 72.3463 50.452 72.2821 51.2323C72.3625 51.9801 72.5239 52.7016 72.7662 53.3967C72.9947 54.3175 73.1022 55.2528 73.089 56.2026C72.9305 56.6229 72.6884 56.9969 72.3628 57.3249C71.626 57.728 70.846 57.9952 70.0227 58.1266C69.9427 58.1128 69.889 58.1395 69.8614 58.2067C69.7841 58.243 69.7168 58.2964 69.6596 58.3671C69.611 59.1283 69.3286 59.7829 68.8124 60.3311C68.0679 60.5497 67.6645 61.0441 67.602 61.8142C67.4783 61.9629 67.3438 62.1099 67.1986 62.2551C66.9445 62.3693 66.7025 62.4895 66.4723 62.6159C66.2341 62.6847 66.0862 62.8451 66.0285 63.0969C65.7844 63.8387 65.5019 64.5602 65.1813 65.2614C65.0222 65.4464 64.8609 65.6335 64.6971 65.8225C64.4405 65.9632 64.1985 66.1235 63.9709 66.3035C63.7601 66.3733 63.5449 66.4267 63.3254 66.4638C62.8412 66.4638 62.3571 66.4638 61.8729 66.4638C61.7622 66.4513 61.6545 66.4646 61.5502 66.5039C61.595 66.5346 61.6219 66.5747 61.6309 66.6242C61.5771 66.6242 61.5233 66.6242 61.4695 66.6242C61.4426 66.5173 61.4157 66.5173 61.3888 66.6242C61.2926 66.5387 61.3195 66.4719 61.4695 66.4238C61.2553 66.3483 61.0401 66.2815 60.824 66.2233C60.1816 65.9042 59.5361 65.5835 58.8874 65.2614C58.2567 64.774 57.5842 64.3465 56.8701 63.9787C56.7572 63.8673 56.6227 63.7871 56.4666 63.7382C55.93 63.2649 55.2979 62.9977 54.5704 62.9365C54.3852 62.9403 54.2372 62.9937 54.1266 63.0969C53.9259 63.0086 53.7645 63.0621 53.6425 63.2572C53.4542 63.3374 53.3197 63.471 53.239 63.658C52.7122 64.2508 52.376 64.9456 52.2304 65.7424C52.072 66.6975 52.0048 67.6595 52.0286 68.6283C52.004 68.8596 52.0308 69.0734 52.1093 69.2697C52.1854 69.9408 52.3468 70.5821 52.5935 71.1937C53.1143 73.0046 54.0289 74.5812 55.337 75.9235C55.7105 76.4283 56.1408 76.8825 56.628 77.2863C57.3579 78.0382 58.1378 78.733 58.9681 79.3706C60.1761 80.2902 61.2385 81.3591 62.1554 82.5773C62.566 83.1984 62.7677 83.8665 62.7605 84.5814C62.1658 84.1233 61.5741 83.6691 60.9853 83.2186C60.6556 82.8641 60.279 82.5701 59.8557 82.3368C59.5805 82.0371 59.2578 81.7966 58.8874 81.6153C58.8598 81.5481 58.806 81.5213 58.726 81.5351C58.2839 81.1635 57.8266 80.8027 57.3543 80.4529C56.9866 80.2038 56.61 79.9767 56.2246 79.7715C56.2246 79.718 56.1977 79.6913 56.1439 79.6913C56.0394 79.6121 55.9318 79.5319 55.8211 79.4508C55.2172 79.0037 54.5987 78.5762 53.9652 78.1681C53.8486 78.0428 53.7142 77.936 53.5618 77.8475C53.271 77.5689 52.9482 77.3284 52.5935 77.126C52.1354 76.6709 51.6513 76.2434 51.141 75.8433C50.9528 75.6028 50.7376 75.389 50.4955 75.202C50.4686 75.1218 50.4148 75.0683 50.3341 75.0416C50.2726 74.9004 50.165 74.8202 50.0114 74.8011C49.85 74.5873 49.6617 74.4003 49.4465 74.24C49.3927 74.1331 49.312 74.0529 49.2045 73.9995C49.0879 73.8742 48.9534 73.7673 48.801 73.6788C48.7395 73.5376 48.6319 73.4574 48.4782 73.4383C48.296 73.2038 48.0808 72.9901 47.8327 72.797C47.6142 72.5798 47.3721 72.3928 47.1065 72.2358C46.8298 71.9342 46.507 71.6937 46.1382 71.5143C45.6574 71.0615 45.1195 70.6874 44.5244 70.392C44.4968 70.3248 44.443 70.298 44.363 70.3118C44.0932 70.0854 43.8243 69.925 43.5561 69.8308C43.0951 69.5484 42.611 69.3079 42.1037 69.1093C42.0464 69.0369 41.9658 69.0102 41.8616 69.0292C41.8616 68.9757 41.8347 68.949 41.7809 68.949C41.6426 68.8498 41.4812 68.7963 41.2967 68.7887C40.6708 68.4745 40.0253 68.2073 39.3602 67.987C39.2038 67.8537 39.0154 67.8003 38.7953 67.8267C38.6339 67.8 38.4726 67.7732 38.3112 67.7465C38.0822 67.6418 37.8401 67.5483 37.585 67.4659C37.689 67.3215 37.8235 67.2279 37.9884 67.1853C38.2024 67.1926 38.3907 67.1392 38.5532 67.025C39.7062 66.9373 40.8359 67.0709 41.9423 67.4258C43.5944 67.8895 45.3427 68.7981 47.1872 70.1515C48.2362 70.9947 49.2583 71.8765 50.2534 72.797C50.3172 72.8692 50.3979 72.9227 50.4955 72.9573C50.6561 73.2009 50.8443 73.3612 51.0604 73.4383C50.9396 73.1294 50.8052 72.8355 50.6569 72.5565C49.726 69.8893 49.6184 67.1904 50.3341 64.4597C50.5745 63.9283 50.8166 63.3939 51.0604 62.8564C51.2077 62.7243 51.3153 62.564 51.3831 62.3754C51.596 62.137 51.8112 61.8965 52.0286 61.6539C52.2773 61.5038 52.4925 61.3168 52.6742 61.0927C53.3248 60.7308 54.0241 60.5704 54.7721 60.6117C55.2255 60.7259 55.6828 60.8595 56.1439 61.0125C56.2795 61.1334 56.4409 61.2136 56.628 61.253C56.9019 61.4712 57.1978 61.6582 57.5156 61.8142C57.7408 61.9934 57.9829 62.1537 58.2419 62.2952C58.5746 62.5983 58.9512 62.8388 59.3715 63.0167C59.3715 63.0702 59.3984 63.0969 59.4522 63.0969C59.9097 63.4045 60.3939 63.6717 60.9047 63.8985C61.1135 64.0689 61.3556 64.1757 61.6309 64.2192C62.1429 64.4788 62.6809 64.5189 63.2447 64.3394C63.565 64.1686 63.7802 63.9147 63.8902 63.5779C64.1315 62.928 64.4139 62.2867 64.7375 61.6539C64.998 61.36 65.3072 61.1462 65.6654 61.0125C66.0189 60.8721 66.1264 60.6316 65.9882 60.291C65.8531 59.9161 65.7187 59.542 65.5847 59.1687C65.7855 59.0174 66.0276 58.9639 66.311 59.0084C66.6773 59.1407 67.0539 59.1808 67.4406 59.1286C67.5111 59.0449 67.5918 58.9781 67.6827 58.9282C67.818 58.6039 67.8718 58.2566 67.8441 57.8861C67.8441 57.7792 67.8441 57.6722 67.8441 57.5654C68.113 57.1379 68.4627 56.7904 68.8931 56.5232C69.2325 56.4055 69.5821 56.3254 69.942 56.2827C70.2523 56.2997 70.5213 56.2196 70.749 56.0422C70.8453 55.9803 70.926 55.9002 70.991 55.8017C71.1991 55.4835 71.1991 55.1628 70.991 54.8397C70.8944 54.4806 70.7868 54.1332 70.6683 53.7976C70.6821 53.718 70.6552 53.6647 70.5876 53.6372C70.6114 53.4581 70.5844 53.2977 70.5069 53.1562C70.478 52.9006 70.4242 52.6601 70.3455 52.4347C70.2522 51.649 70.2522 50.8474 70.3455 50.0298C70.4797 49.8744 70.5334 49.6873 70.5069 49.4686C70.5823 49.1581 70.7033 48.8642 70.87 48.5868C71.0937 48.2751 71.2954 47.9544 71.4752 47.6248C72.2309 46.5992 72.7419 45.4234 73.0083 44.0974C73.355 42.8251 73.4089 41.5425 73.1697 40.2495C73.1761 39.9864 73.1223 39.7459 73.0083 39.528C73.0083 39.6616 73.0083 39.7952 73.0083 39.9288C72.8377 39.6703 72.8108 39.3898 72.9276 39.0871C72.8223 38.7585 72.6878 38.4512 72.5242 38.1651C72.5113 38.0326 72.4575 37.9258 72.3628 37.8445C72.2162 37.4997 72.0279 37.179 71.7979 36.8825C71.7073 36.7817 71.6536 36.8084 71.6366 36.9626C71.439 37.7674 71.17 38.5156 70.8297 39.2073C70.8028 39.1004 70.7758 39.1004 70.749 39.2073C70.6813 39.2347 70.6544 39.2881 70.6683 39.3676C70.5548 39.4056 70.501 39.4857 70.5069 39.6081C70.3595 39.7402 70.2519 39.9005 70.1841 40.0891C70.1034 40.1158 70.0496 40.1693 70.0227 40.2495C69.9551 40.2769 69.9282 40.3303 69.942 40.4098C69.6181 40.6516 69.3491 40.9456 69.1351 41.2916C68.9469 41.4253 68.7855 41.5856 68.651 41.7726C68.4406 41.9011 68.2523 42.0615 68.0862 42.2536C67.8496 42.3578 67.6612 42.5182 67.5213 42.7346C67.4237 42.7693 67.343 42.8227 67.2792 42.895C66.8513 43.1605 66.4478 43.4544 66.0689 43.7768C65.5712 43.9836 65.1139 44.2509 64.6971 44.5784C63.6889 45.0658 62.6669 45.5334 61.6309 45.9814C61.6847 46.0081 61.7384 46.0348 61.7923 46.0615C61.6794 46.1092 61.5718 46.0958 61.4695 46.0214C61.1586 46.1414 60.8628 46.2749 60.5819 46.4223C60.3974 46.4299 60.2361 46.4834 60.0977 46.5826C59.9321 46.5747 59.7976 46.6282 59.6943 46.7429C58.9948 46.8945 58.3224 47.1083 57.677 47.3843C57.2193 47.4559 56.7889 47.5894 56.386 47.7851C56.2818 47.7661 56.2011 47.7928 56.1439 47.8653C55.9594 47.8729 55.798 47.9264 55.6597 48.0256C55.334 48.0709 55.0382 48.1778 54.7721 48.3463C54.6065 48.3384 54.472 48.3919 54.3687 48.5066C53.9853 48.6036 53.6357 48.7639 53.3197 48.9876C53.2166 49.0102 53.1359 49.0637 53.0776 49.1479C53.0508 49.0411 53.0238 49.0411 52.9969 49.1479C52.5527 49.3282 52.1493 49.5687 51.7866 49.8694C51.6051 49.9159 51.4707 50.0228 51.3831 50.1901C51.1515 50.2649 50.9632 50.3985 50.8183 50.5909C50.472 50.8012 50.1762 51.0684 49.9307 51.3926C49.8769 51.3926 49.85 51.4193 49.85 51.4727C49.7962 51.4727 49.7693 51.4994 49.7693 51.5529C49.6617 51.6064 49.581 51.6866 49.5272 51.7934C49.2544 51.9842 49.0393 52.2247 48.8817 52.5149C48.6279 52.7522 48.4127 53.0194 48.2362 53.3166C48.0678 53.4036 47.9602 53.5371 47.9134 53.7174C47.3361 54.4367 46.7982 55.1849 46.2996 55.9621C46.1347 56.0486 46.0272 56.1822 45.9768 56.3629C45.6964 56.6518 45.4543 56.9725 45.2506 57.3249C45.1394 57.4087 45.0587 57.5155 45.0085 57.6456C44.7365 57.9158 44.4944 58.2097 44.2823 58.5274C44.2285 58.5274 44.2016 58.5541 44.2016 58.6075C43.7705 59.036 43.367 59.4903 42.9913 59.9704C42.8837 60.0238 42.803 60.104 42.7492 60.2109C41.3123 61.6782 39.8061 63.0811 38.2305 64.4196C37.9451 64.6897 37.6761 64.9703 37.4236 65.2614C36.5802 65.9653 35.854 66.767 35.2449 67.6663C34.9067 68.0438 34.6108 68.458 34.3573 68.9089C34.0711 69.4359 33.7618 70.0372 33.4294 70.7127C33.2674 71.075 33.1464 71.4491 33.0663 71.835C32.549 73.3351 32.2263 74.8849 32.098 76.4846C31.9904 77.4199 31.9904 78.3552 32.098 79.2905C32.2185 80.5562 32.4068 81.8122 32.6628 83.0583C32.6362 83.277 32.69 83.4641 32.8242 83.6194C33.1876 84.8905 33.6449 86.1197 34.1959 87.3071C34.5427 88.21 34.9731 89.0651 35.487 89.8724C35.5337 90.0994 35.6413 90.2864 35.8098 90.4336C35.9576 90.7815 36.1458 91.1022 36.3746 91.3956C36.8868 92.3071 37.4786 93.1624 38.1498 93.9609C38.3368 94.2535 38.552 94.5204 38.7953 94.7625C39.1686 95.2941 39.5721 95.8015 40.0057 96.2857C40.0873 96.3955 40.168 96.5022 40.2478 96.6064C40.3823 96.7932 40.5437 96.9535 40.7319 97.0874C40.8288 97.2806 40.9632 97.4409 41.1354 97.5684C41.1892 97.675 41.2699 97.7552 41.3774 97.8089C41.5657 98.0494 41.7809 98.2634 42.023 98.4502C42.3744 98.9593 42.8047 99.3873 43.314 99.7329C43.6346 100.105 43.9842 100.452 44.363 100.775C44.4168 100.882 44.4975 100.962 44.6051 101.016C44.7189 101.209 44.8803 101.343 45.0892 101.416C45.1559 101.557 45.2634 101.665 45.412 101.737C45.7111 102.115 46.0607 102.435 46.461 102.699C46.6846 102.931 46.9266 103.145 47.1872 103.34C47.3038 103.465 47.4382 103.573 47.5906 103.661C47.6777 103.825 47.8122 103.932 47.9941 103.982C48.457 104.466 48.9681 104.893 49.5272 105.264C49.6438 105.389 49.7783 105.497 49.9307 105.585C50.3646 105.963 50.8217 106.31 51.3024 106.627C51.6057 106.955 51.9553 107.223 52.3514 107.429C52.762 107.834 53.2192 108.181 53.7232 108.471C54.0683 108.776 54.4448 109.044 54.8528 109.273C55.3949 109.645 55.9597 110.046 56.5473 110.475C56.7874 110.701 57.0563 110.889 57.3543 111.036C57.6813 111.307 58.0309 111.548 58.4032 111.758C58.7472 112.07 59.0969 112.311 59.4522 112.479C59.7274 112.779 60.0501 113.02 60.4205 113.201C60.8221 113.534 61.2525 113.828 61.7116 114.083C61.9727 114.347 62.2686 114.574 62.5992 114.764C62.9433 114.864 63.2123 114.77 63.4061 114.483C63.7815 114.217 64.1311 113.923 64.4551 113.602C64.6929 113.499 64.8812 113.339 65.0199 113.121C65.1175 113.086 65.1982 113.032 65.262 112.96C65.4986 112.856 65.6869 112.696 65.8268 112.479C65.9244 112.445 66.0051 112.391 66.0689 112.319C66.4743 111.996 66.8777 111.675 67.2792 111.357C67.3599 111.331 67.4138 111.277 67.4406 111.197C67.8346 110.987 68.1843 110.72 68.4896 110.395C68.7823 110.211 69.0513 109.997 69.2965 109.754C69.5622 109.597 69.8042 109.41 70.0227 109.192C70.2884 109.035 70.5304 108.849 70.749 108.631C71.5789 108.074 72.3859 107.486 73.1697 106.868C73.2804 106.787 73.388 106.707 73.4925 106.627C73.8472 106.424 74.1699 106.184 74.4607 105.906C74.8026 105.75 75.0984 105.536 75.3483 105.264C75.5302 105.215 75.6647 105.107 75.7518 104.944C76.5239 104.471 77.2502 103.936 77.9305 103.34C78.0841 103.321 78.1917 103.241 78.2532 103.1C78.4069 103.081 78.5145 103 78.576 102.859C78.8751 102.684 79.1441 102.47 79.3829 102.218C79.5061 102.224 79.5868 102.171 79.625 102.058C79.906 101.798 80.2019 101.557 80.5126 101.336C80.8031 101.181 81.0451 100.967 81.2388 100.695C81.5635 100.292 81.8863 99.8916 82.2071 99.4924C82.598 99.1172 82.9477 98.7027 83.2561 98.2498C83.1485 98.1023 83.162 98.0622 83.2964 98.1295C83.7943 97.4385 84.2381 96.5839 84.6278 95.5642C84.7384 95.3686 84.8191 95.1554 84.8699 94.9229C84.9917 94.668 85.0993 94.4002 85.1926 94.1212C85.3197 93.993 85.3735 93.8326 85.354 93.6402C85.354 93.5336 85.354 93.4262 85.354 93.3196C85.6128 92.5163 85.8011 91.6874 85.9189 90.8344C85.9964 90.6933 86.0234 90.533 85.9996 90.3534C85.9996 90.3267 85.9996 90.2999 85.9996 90.2732C86.0784 90.0498 86.1053 89.8093 86.0803 89.5517C86.1771 88.4297 86.1771 87.3074 86.0803 86.1848C86.1053 85.7626 86.0516 85.3618 85.9189 84.9823C85.9189 84.9288 85.9189 84.8754 85.9189 84.8219C85.9405 84.6937 85.9135 84.5869 85.8382 84.5013C85.767 84.0843 85.6594 83.6835 85.5154 83.2988C85.4959 82.9798 85.4152 82.6858 85.2733 82.4169C85.174 81.9334 85.0126 81.4791 84.7892 81.0541C84.7878 80.8886 84.761 80.7282 84.7085 80.5731C84.7329 80.368 84.7059 80.1809 84.6278 80.012C84.6009 80.012 84.574 80.012 84.5471 80.012C84.3841 79.036 84.7338 78.3279 85.5961 77.8875C86.5299 77.6228 87.4175 77.2487 88.2589 76.7652C88.62 76.5528 88.9428 76.2989 89.2272 76.0036C89.3808 75.9846 89.4885 75.9044 89.55 75.7631C89.6307 75.7364 89.6845 75.683 89.7113 75.6028C89.9457 75.5135 90.1071 75.3532 90.1955 75.1218C90.3837 74.9882 90.5451 74.8278 90.6796 74.6408C90.8448 74.4765 90.9793 74.2894 91.0831 74.0796C91.2757 73.8862 91.4506 73.6724 91.6076 73.4383C91.9301 72.9313 92.1857 72.3968 92.3741 71.835C92.474 71.6976 92.5279 71.5373 92.5355 71.354C92.8087 70.7767 92.97 70.1621 93.0197 69.5102C93.1272 69.2084 93.1944 68.8878 93.2214 68.5482C93.2879 67.8126 93.2744 67.0911 93.1811 66.3837C93.1811 66.1699 93.1811 65.9562 93.1811 65.7424C93.2049 65.5632 93.1779 65.4028 93.1004 65.2614C93.0735 65.2614 93.0465 65.2614 93.0197 65.2614C92.9855 64.7058 92.8242 64.198 92.5355 63.7382C92.5547 63.6347 92.5278 63.5545 92.4548 63.4977C92.4119 63.2604 92.3581 63.2337 92.2935 63.4175C92.3041 63.0611 92.1696 62.7404 91.89 62.4555C91.89 62.4021 91.8631 62.3754 91.8093 62.3754C91.8232 62.2958 91.7962 62.2424 91.7286 62.215C91.5513 61.9154 91.3361 61.6482 91.0831 61.4134C90.7603 60.9324 90.3569 60.5315 89.8727 60.2109C89.8727 60.1574 89.8459 60.1307 89.792 60.1307C89.0857 59.5138 88.3594 59.0596 87.6134 58.7679C87.1939 58.5039 86.7367 58.3168 86.2416 58.2067C85.9992 58.0643 85.7302 57.9841 85.4347 57.9662C85.4347 57.9127 85.4079 57.8861 85.354 57.8861C85.1977 57.7527 85.0093 57.6993 84.7892 57.7257C83.0066 57.4234 81.2314 57.4903 79.4636 57.9261C79.1434 58.0093 78.8475 58.1296 78.576 58.2869C77.7328 58.5316 77.0065 58.9591 76.3973 59.5695C76.3166 59.5962 76.2628 59.6497 76.2359 59.7299C75.5084 60.2914 74.9973 61.0129 74.7028 61.8944C74.5873 61.997 74.5335 62.1306 74.5414 62.2952C74.3619 62.8985 74.1871 63.5131 74.0169 64.139C73.3126 65.2453 72.304 65.9267 70.991 66.1833C70.9199 66.24 70.8662 66.3069 70.8297 66.3837C70.7221 66.5707 70.7221 66.7578 70.8297 66.9448C70.8478 67.3255 70.8075 67.6996 70.7086 68.0672C70.5141 68.2994 70.3393 68.5399 70.1841 68.7887C70.08 68.8334 70.0128 68.9136 69.9824 69.0292C69.9541 69.6985 69.9541 70.3666 69.9824 71.0333C69.8338 71.4885 69.6859 71.9427 69.5386 72.3962C69.3944 72.6294 69.3674 72.8699 69.4579 73.1176C69.4709 73.6063 69.6188 74.0606 69.9017 74.4805C70.5423 75.2104 71.3357 75.6914 72.2821 75.9235C72.8285 76.1988 73.3934 76.4526 73.9766 76.685C74.4904 76.916 74.9477 77.2233 75.3483 77.607C76.0615 78.5671 75.9539 79.4356 75.0256 80.2124C74.0199 80.959 72.9037 81.4801 71.6769 81.7756C71.4815 81.7392 71.2797 81.7258 71.0717 81.7355C70.8888 81.6489 70.8753 81.5286 71.0314 81.3748C71.7598 80.825 72.4994 80.2371 73.2504 79.6111C73.3989 79.5388 73.5065 79.4319 73.5731 79.2905C73.7734 79.1634 73.8272 79.0031 73.7345 78.8095C73.7484 78.7299 73.7215 78.6765 73.6538 78.6491C72.684 78.1042 71.6619 77.6499 70.5876 77.2863C69.851 76.9332 69.1785 76.4789 68.5703 75.9235C68.5434 75.8433 68.4896 75.7898 68.4089 75.7631C68.3031 75.5519 68.1686 75.3648 68.0055 75.202C68.0193 75.1224 67.9924 75.0691 67.9248 75.0416C67.9439 74.9381 67.917 74.858 67.8441 74.8011C67.4734 73.6316 67.4465 72.4558 67.7634 71.2738C67.8807 71.0158 67.9345 70.7353 67.9248 70.4321C67.871 69.9122 67.8442 69.3911 67.8441 68.8688C68.0137 68.3193 68.3096 67.8383 68.7317 67.4258C68.7815 67.4169 68.8218 67.3902 68.8527 67.3457C68.9181 67.0364 68.9046 66.7425 68.8124 66.4638C68.7448 66.4364 68.7178 66.383 68.7317 66.3035C68.7718 65.4881 69.1483 64.8735 69.8614 64.4597C70.0227 64.433 70.1841 64.4062 70.3455 64.3795C70.5595 64.3867 70.7477 64.3333 70.9103 64.2192C71.2822 64.1467 71.632 64.0131 71.9593 63.8184C72.1939 63.6729 72.3015 63.4591 72.2821 63.177C72.4026 62.4565 72.564 61.735 72.7662 61.0125C72.8817 60.9099 72.9355 60.7763 72.9276 60.6117C73.2425 60.174 73.5384 59.7197 73.8152 59.2489C73.9873 59.1213 74.1218 58.961 74.2187 58.7679C74.4876 58.5541 74.7297 58.3136 74.9449 58.0464C75.0681 58.0522 75.1488 57.9988 75.187 57.8861C75.2408 57.8861 75.2677 57.8594 75.2677 57.8059C75.5654 57.5895 75.8613 57.3758 76.1553 57.1646C76.3982 57.0708 76.6134 56.9372 76.8008 56.7637C76.9879 56.7243 77.1493 56.6441 77.2849 56.5232C77.6317 56.4306 77.9544 56.2971 78.2532 56.1224C78.3822 56.1439 78.4898 56.1171 78.576 56.0422C78.6567 56.0422 78.7374 56.0422 78.8181 56.0422C79.1177 56.035 79.3868 55.9548 79.625 55.8017C81.0045 55.5148 82.4032 55.408 83.8209 55.4811C84.2074 55.5793 84.6109 55.6327 85.0313 55.6414C85.3831 55.7523 85.7462 55.8591 86.1206 55.9621C86.1829 55.9504 86.2367 55.9237 86.282 55.8819C86.3393 56 86.4334 56.0535 86.5644 56.0422C86.865 56.1903 87.1877 56.2972 87.5327 56.3629C87.6881 56.5066 87.8763 56.5868 88.0975 56.6034C88.493 56.8944 88.9233 57.0681 89.3886 57.1245C89.4961 57.1779 89.4961 57.2313 89.3886 57.2848C89.4486 57.3681 89.5293 57.4082 89.6307 57.4051C89.8848 57.6519 90.1807 57.839 90.5183 57.9662C90.5797 58.1075 90.6874 58.1876 90.841 58.2067C91.7313 59.0109 92.5651 59.8661 93.3424 60.772C93.419 60.9546 93.5266 61.1149 93.6652 61.253C93.9883 61.8415 94.3111 62.4294 94.6335 63.0167C95.0017 63.9991 95.2169 65.0146 95.279 66.063C95.279 66.731 95.279 67.3991 95.279 68.0672C95.2045 69.3589 94.9491 70.6149 94.5125 71.835C94.0709 72.9261 93.5464 73.9683 92.939 74.9615C92.7453 75.1055 92.6108 75.2926 92.5355 75.5226C91.945 76.2402 91.2995 76.9082 90.5989 77.5268C90.3591 77.6588 90.1438 77.8192 89.9534 78.0078C89.5331 78.2561 89.1296 78.5234 88.7431 78.8095C88.073 79.156 87.3736 79.4232 86.6451 79.6111C86.6563 80.2972 86.8177 80.9385 87.1292 81.5351C87.3305 82.3348 87.5322 83.1364 87.7344 83.9401C87.8881 84.6544 87.9823 85.3759 88.0168 86.1046C88.0168 87.4139 88.0168 88.7234 88.0168 90.0327C87.9782 90.5955 87.9244 91.1567 87.8555 91.7162C87.4184 93.54 86.8132 95.3037 86.0399 97.0072C86.2313 96.8308 86.4062 96.6433 86.5644 96.446C86.8901 96.123 87.1859 95.7751 87.452 95.4039C87.8604 95.0247 88.21 94.5974 88.501 94.1212C89.2811 93.2065 89.8998 92.271 90.3569 91.3154C91.0741 90.2645 91.6659 89.1422 92.1321 87.9484C92.4467 87.3327 92.7157 86.6914 92.939 86.0244C93.0119 85.9676 93.0388 85.8874 93.0197 85.7839C93.1351 85.6813 93.189 85.5477 93.1811 85.3831C93.4852 84.7174 93.7273 84.0226 93.9073 83.2988C94.1296 82.8179 94.291 82.3102 94.3914 81.7756C94.6426 81.1057 94.8309 80.4109 94.9563 79.6913C95.2186 78.9155 95.4068 78.1139 95.5211 77.2863C95.548 77.2863 95.5749 77.2863 95.6018 77.2863C95.7261 77.0989 95.7798 76.8851 95.7632 76.645C95.8005 76.4059 95.8274 76.1654 95.8439 75.9235C96.14 74.8531 96.3551 73.7575 96.4894 72.6367C96.7116 71.56 96.8865 70.4644 97.0139 69.3498C97.2201 67.3514 97.3949 65.3741 97.5384 63.4175C97.6179 63.0861 97.6447 62.7387 97.6191 62.3754C97.8669 58.5122 98.5662 54.731 99.717 51.0318C99.7036 50.9918 99.6902 50.9517 99.6767 50.9116C99.1653 51.3528 98.6677 51.8071 98.1839 52.2744C97.6123 52.668 97.0743 53.1089 96.5701 53.5972C95.9255 54.1226 95.3607 54.0558 94.8756 53.3967C94.8589 53.0442 94.8858 52.6967 94.9563 52.3546C95.036 52.2508 95.1167 52.1439 95.1983 52.0339C95.3927 51.9376 95.5541 51.8041 95.6825 51.6331C95.7363 51.6331 95.7632 51.6064 95.7632 51.5529C96.1385 51.2867 96.4882 50.9928 96.8122 50.6711C96.8928 50.6444 96.9467 50.5909 96.9735 50.5108C97.1561 50.443 97.2099 50.3362 97.1349 50.1901C97.2712 50.0754 97.4326 50.0086 97.6191 49.9897C97.7167 49.9064 97.7974 49.8128 97.8611 49.7091C97.9687 49.6556 98.0494 49.5755 98.1032 49.4686C98.3398 49.3644 98.5281 49.204 98.6681 48.9876C99.1783 48.5875 99.6624 48.16 100.12 47.7049C100.201 47.6782 100.255 47.6248 100.282 47.5446C100.526 47.3816 100.768 47.2213 101.008 47.0636C101.062 47.0636 101.116 47.0636 101.169 47.0636C101.385 47.0636 101.6 47.0636 101.815 47.0636C102.133 47.1388 102.348 47.3258 102.461 47.6248C102.737 48.5045 103.06 49.3596 103.429 50.1901C103.436 50.3733 103.49 50.5337 103.59 50.6711C103.851 51.5825 104.174 52.4643 104.558 53.3166C104.732 53.8226 104.907 54.3303 105.083 54.8397C105.175 55.566 104.866 56.0203 104.155 56.2026C104.1 56.1735 104.046 56.1468 103.994 56.1224C103.912 56.0283 103.804 55.9749 103.671 55.9621C103.402 55.775 103.187 55.5345 103.025 55.2406C103.008 55.1266 102.968 55.0197 102.904 54.9199C102.839 55.1124 102.772 55.099 102.703 54.8798C102.756 54.8531 102.81 54.8263 102.864 54.7997C102.59 54.1016 102.294 53.4202 101.976 52.7554C101.982 52.5163 101.901 52.3826 101.734 52.3546C101.801 52.2783 101.814 52.1982 101.775 52.1141C101.053 54.3126 100.502 56.5305 100.12 58.7679C99.9793 59.0631 99.9255 59.3838 99.9591 59.7299C99.9398 60.078 99.9129 60.4254 99.8784 60.772C99.6093 62.8123 99.3941 64.8432 99.2329 66.8647C99.1539 67.1152 99.1269 67.3824 99.1522 67.6663C98.5542 74.6274 97.0479 81.2545 94.6335 87.5476C94.5388 87.6289 94.485 87.7357 94.4721 87.8683C93.8438 89.2236 93.1714 90.5594 92.4548 91.8766C92.0113 92.4906 91.6078 93.132 91.2445 93.8006C90.8027 94.3032 90.3992 94.8379 90.0341 95.4039C89.6599 95.856 89.2834 96.3106 88.9044 96.7667C88.8506 96.7667 88.8237 96.7932 88.8237 96.8469C88.6901 97.004 88.5556 97.1643 88.4203 97.3279C88.3665 97.3279 88.3396 97.3543 88.3396 97.408C88.2589 97.4345 88.2051 97.4882 88.1782 97.5684C88.1244 97.5684 88.0975 97.5948 88.0975 97.6485C87.9361 97.7552 87.8016 97.889 87.6941 98.0494C87.2637 98.4237 86.8603 98.8246 86.4837 99.2519C86.235 99.4018 86.0198 99.5894 85.8382 99.813C85.7575 99.8395 85.7037 99.8932 85.6768 99.9734C85.29 100.264 84.9135 100.571 84.5471 100.895C84.6149 101.029 84.5746 101.042 84.4261 100.935C84.3418 101.005 84.2745 101.085 84.2244 101.176C84.0138 101.251 83.8525 101.385 83.7402 101.577C83.5587 101.623 83.4243 101.73 83.3368 101.897C83.0376 102.073 82.7687 102.287 82.5298 102.539C82.1904 102.694 81.8946 102.907 81.6422 103.18C81.1257 103.516 80.6416 103.89 80.1898 104.302C80.0666 104.297 79.9859 104.35 79.9477 104.463C79.6345 104.657 79.3387 104.872 79.0601 105.104C78.793 105.263 78.551 105.45 78.3339 105.665C77.6921 106.089 77.0735 106.543 76.478 107.028C76.2669 107.131 76.0786 107.264 75.9132 107.429C75.6241 107.559 75.3821 107.745 75.187 107.99C75.1069 107.976 75.0532 108.003 75.0256 108.07C74.7585 108.229 74.5164 108.416 74.2994 108.631C73.7139 108.973 73.1759 109.374 72.6855 109.834C72.6317 109.834 72.6049 109.86 72.6049 109.914C72.4816 109.908 72.4009 109.961 72.3628 110.074C72.2396 110.069 72.1589 110.122 72.1207 110.235C71.9683 110.323 71.8339 110.43 71.7173 110.555C71.5354 110.605 71.4009 110.712 71.3138 110.876C70.8905 111.109 70.5139 111.403 70.1841 111.758C69.3238 112.346 68.4899 112.974 67.6827 113.642C67.4347 113.87 67.1926 114.097 66.9565 114.323C66.4958 114.633 66.0655 114.98 65.6654 115.365C64.885 115.954 64.1049 116.541 63.3254 117.129C63.0839 117.179 62.8418 117.193 62.5992 117.169C61.733 116.659 60.8993 116.112 60.0977 115.526C60.0596 115.413 59.9789 115.36 59.8557 115.365C59.6034 115.093 59.3075 114.879 58.9681 114.724C58.9299 114.611 58.8492 114.558 58.726 114.564C58.5021 114.315 58.2331 114.128 57.9191 114.002C57.8436 113.885 57.7359 113.804 57.5963 113.762C56.8081 113.116 55.9743 112.528 55.0949 111.998C55.0567 111.885 54.976 111.832 54.8528 111.838C54.2039 111.289 53.4508 110.754 52.5935 110.235C52.3433 109.96 52.0474 109.746 51.7059 109.593C51.3051 109.234 50.8748 108.914 50.4148 108.631C50.3278 108.468 50.1932 108.36 50.0114 108.311C50.0114 108.257 49.9845 108.23 49.9307 108.23C49.7136 108.016 49.4715 107.828 49.2045 107.669C49.2045 107.616 49.1776 107.589 49.1238 107.589C49.06 107.517 48.9793 107.463 48.8817 107.429C48.8202 107.288 48.7126 107.208 48.5589 107.188C48.3226 106.937 48.0536 106.723 47.752 106.547C47.4548 106.252 47.1321 105.985 46.7837 105.745C46.5133 105.477 46.2174 105.236 45.8961 105.024C45.143 104.356 44.3899 103.687 43.6368 103.02C43.6099 102.94 43.5561 102.886 43.4754 102.859C43.4216 102.753 43.3409 102.673 43.2333 102.619C43.1795 102.539 43.1258 102.459 43.0719 102.378C42.9844 102.211 42.85 102.104 42.6685 102.058C42.6416 102.058 42.6147 102.058 42.5878 102.058C42.5609 101.978 42.5071 101.924 42.4264 101.897C42.3457 101.763 42.2382 101.657 42.1037 101.577C42.1037 101.523 42.0768 101.497 42.023 101.497C41.9691 101.39 41.8884 101.31 41.7809 101.256C41.7809 101.202 41.754 101.176 41.7002 101.176C41.7002 101.122 41.6733 101.096 41.6195 101.096C41.5388 100.962 41.4313 100.855 41.2967 100.775C41.216 100.641 41.1085 100.535 40.974 100.454C40.7353 100.083 40.4395 99.7625 40.0864 99.4924C40.0864 99.4387 40.0595 99.4122 40.0057 99.4122C39.713 98.9881 39.3634 98.6137 38.9567 98.2899C38.8258 98.0534 38.6644 97.8393 38.4726 97.6485C38.4187 97.5419 38.338 97.4617 38.2305 97.408C37.8283 96.8485 37.398 96.3138 36.9394 95.8047C36.9453 95.6821 36.8915 95.6019 36.778 95.5642C36.4053 94.9806 36.0019 94.4194 35.5677 93.8807C35.258 93.318 34.9083 92.784 34.5187 92.2774C34.503 92.0842 34.3954 92.004 34.1959 92.0369C34.2296 91.9792 34.2834 91.9391 34.3573 91.9166C33.9296 91.2184 33.4992 90.4833 33.0663 89.7121C33.0801 89.6325 33.0532 89.5792 32.9856 89.5517C32.9994 89.4722 32.9725 89.4188 32.9049 89.3914C32.8843 89.1936 32.8036 89.0333 32.6628 88.9104C32.6191 88.6369 32.5115 88.3964 32.34 88.1889C32.3131 88.0821 32.2862 88.0821 32.2593 88.1889C32.2112 87.7781 32.0767 87.3773 31.8559 86.9864C31.8697 86.9069 31.8428 86.8535 31.7752 86.8261C31.6599 86.3748 31.4985 85.9472 31.2911 85.5434C31.2984 85.3308 31.2446 85.1438 31.1297 84.9823C30.9826 84.4244 30.8481 83.8632 30.7262 83.2988C30.7478 83.1706 30.7209 83.0637 30.6455 82.9781C30.4072 82.0876 30.2728 81.179 30.2421 80.2524C30.258 79.8316 30.2042 79.4307 30.0807 79.05C30.0807 78.8362 30.0807 78.6224 30.0807 78.4086C30.0807 77.9276 30.0807 77.4466 30.0807 76.9656C30.0742 76.1422 30.1549 75.3273 30.3228 74.5206C30.2796 74.062 30.1989 73.6211 30.0807 73.1978C30.1054 72.9665 30.0785 72.7527 30 72.5565C30 72.2358 30 71.9152 30 71.5945C30 70.7127 30 69.8308 30 68.949C30.0498 67.4002 30.265 65.877 30.6455 64.3795C30.7797 64.2242 30.8335 64.0371 30.8069 63.8184C31.0392 62.8956 31.3216 61.987 31.6542 61.0927C32.0949 60.0838 32.5118 59.0683 32.9049 58.0464C33.0584 57.8035 33.166 57.5363 33.2276 57.2447C33.4508 56.8746 33.6122 56.4738 33.7118 56.0422C33.8651 55.8003 33.9727 55.5331 34.0346 55.2406C34.2152 54.8625 34.3497 54.4617 34.438 54.0381C34.5649 53.8204 34.6455 53.5799 34.6801 53.3166C34.9328 52.9891 34.9598 52.6417 34.7608 52.2744C34.7887 52.1785 34.829 52.1785 34.8818 52.2744C34.9087 52.3546 34.9356 52.4347 34.9625 52.5149C35.0947 52.1764 35.1888 51.8291 35.2449 51.4727C35.3358 51.2351 35.4165 50.9946 35.487 50.7513C35.6113 50.5638 35.665 50.35 35.6484 50.1099C35.6484 50.0832 35.6484 50.0565 35.6484 50.0298C35.7726 49.8423 35.8264 49.6285 35.8098 49.3884C35.8098 49.2548 35.8098 49.1212 35.8098 48.9876C35.9317 48.7436 35.9855 48.4763 35.9711 48.1859C36.0913 47.8864 36.1451 47.5658 36.1325 47.2239C36.36 45.8996 36.5752 44.5635 36.778 43.2156C36.851 43.1588 36.8779 43.0786 36.8587 42.9751C36.8446 42.8051 36.8716 42.6448 36.9394 42.4941C37.0148 42.4085 37.0417 42.3016 37.0201 42.1735C37.0908 41.8558 37.1445 41.5352 37.1815 41.2115C37.2744 41.0288 37.3551 40.8417 37.4236 40.6503C37.4965 40.5935 37.5234 40.5133 37.5043 40.4098C37.9042 39.0572 38.4153 37.7479 39.0374 36.4817C39.233 36.2806 39.3674 36.0401 39.4408 35.7602C39.5543 35.7222 39.6081 35.6421 39.6022 35.5197C39.804 35.2796 39.9653 35.0124 40.0864 34.718C40.1998 34.6801 40.2536 34.5999 40.2478 34.4775C40.3739 34.3617 40.4814 34.2281 40.5705 34.0767C40.6827 33.9645 40.7634 33.8309 40.8126 33.6758C41.2461 33.269 41.6227 32.8148 41.9423 32.313C42.023 32.2863 42.0768 32.2328 42.1037 32.1527C42.2896 31.941 42.4779 31.7271 42.6685 31.5113C43.074 31.135 43.4775 30.7609 43.8789 30.389C44.1275 30.2389 44.3427 30.0519 44.5244 29.8278C46.3799 28.4528 48.3703 27.384 50.4955 26.6212C50.5762 26.6212 50.6569 26.6212 50.7376 26.6212C51.1149 26.5762 51.4645 26.4694 51.7866 26.3005C51.8134 26.3005 51.8404 26.3005 51.8673 26.3005C52.1089 26.317 52.3241 26.2637 52.5128 26.1402C52.7106 26.0949 52.8989 26.0414 53.0776 25.9799C53.2841 26.0041 53.4724 25.9773 53.6425 25.8997C54.2326 25.8446 54.8243 25.8178 55.4177 25.8195ZM58.6453 28.3849C58.9696 28.3966 59.2924 28.4233 59.6136 28.465C59.7212 28.5185 59.8288 28.5719 59.9364 28.6254C60.0439 28.6254 60.1516 28.6254 60.2591 28.6254C60.4365 28.6554 60.5979 28.7089 60.7433 28.7857C61.7952 28.9914 62.7903 29.3388 63.7288 29.8278C63.6213 29.8545 63.6213 29.8813 63.7288 29.908C63.7288 29.9615 63.7557 29.9882 63.8095 29.9882C63.7758 30.0461 63.7221 30.0861 63.6481 30.1084C63.8124 30.1564 63.9468 30.1164 64.0516 29.9882C64.2605 29.9851 64.4219 30.0652 64.5358 30.2287C64.6158 30.2149 64.6695 30.2417 64.6971 30.3088C64.9256 30.3553 65.1138 30.4621 65.262 30.6295C65.2182 30.6343 65.1913 30.661 65.1813 30.7097C65.3028 30.8096 65.4238 30.8096 65.5444 30.7097C66.0957 31.0561 66.6202 31.4301 67.1179 31.832C67.0825 31.8268 67.0556 31.8401 67.0372 31.8721C67.1044 31.9389 67.1717 32.0057 67.2389 32.0725C67.2711 32.0542 67.2845 32.0275 67.2792 31.9923C67.5154 32.0931 67.7038 32.2534 67.8441 32.4733C68.1009 32.6527 68.316 32.8664 68.4896 33.1147C68.658 33.2016 68.7656 33.3352 68.8124 33.5155C68.9772 33.602 69.0848 33.7356 69.1351 33.9163C69.2486 33.9542 69.3024 34.0344 69.2965 34.1568C69.212 34.2032 69.2255 34.2566 69.3369 34.3172C69.3691 34.2989 69.3825 34.2721 69.3772 34.237C69.4448 34.2644 69.4718 34.3178 69.4579 34.3973C69.5827 34.499 69.6634 34.6326 69.7 34.7982C69.5981 35.242 69.5981 35.6963 69.7 36.161C69.454 37.0774 69.0237 37.9324 68.4089 38.7263C68.278 38.9632 68.1167 39.177 67.9248 39.3676C67.6272 39.8236 67.2506 40.1978 66.7951 40.49C66.7682 40.5701 66.7144 40.6236 66.6337 40.6503C66.6068 40.7305 66.553 40.7839 66.4723 40.8106C66.3557 40.9359 66.2213 41.0428 66.0689 41.1313C66.0307 41.244 65.95 41.2975 65.8268 41.2916C65.6364 41.4803 65.4212 41.6406 65.1813 41.7726C65.1008 41.6754 65.0201 41.6888 64.9392 41.8127C64.9576 41.8447 64.9846 41.858 65.0199 41.8528C64.887 41.9992 64.7256 42.1061 64.5358 42.1735C64.4422 42.3137 64.3077 42.3939 64.1323 42.414C64.1047 42.4811 64.051 42.5079 63.9709 42.4941C63.2122 42.9779 62.4053 43.3788 61.5502 43.6966C61.4348 43.7798 61.3003 43.8332 61.1467 43.8569C59.7234 44.4265 58.271 44.9341 56.7894 45.3801C56.363 45.4679 55.9596 45.6014 55.579 45.7809C55.0354 45.9254 54.4975 46.0857 53.9652 46.2619C53.7199 46.4099 53.451 46.5168 53.1583 46.5826C52.4622 46.9552 51.7628 47.3294 51.0604 47.7049C50.8105 47.9765 50.5146 48.1903 50.1728 48.3463C50.0328 48.5627 49.8445 48.723 49.6079 48.8273C49.3679 49.0387 49.1259 49.2525 48.8817 49.4686C48.8548 49.5488 48.801 49.6022 48.7203 49.6289C48.6521 49.8103 48.5446 49.8637 48.3976 49.7893C48.309 49.8612 48.309 49.9279 48.3976 49.9897C48.3271 50.0734 48.2464 50.1402 48.1555 50.1901C48.1088 50.1062 48.0551 50.1195 47.9941 50.2302C48.0125 50.2622 48.0394 50.2755 48.0748 50.2703C47.9945 50.4792 47.8331 50.6662 47.5906 50.8314C47.3403 51.1963 47.0713 51.5438 46.7837 51.8736C46.7334 52.0543 46.6258 52.1879 46.461 52.2744C46.1732 52.8006 45.8236 53.2816 45.412 53.7174C44.8546 54.5652 44.236 55.3668 43.5561 56.1224C43.5057 56.3031 43.3982 56.4367 43.2333 56.5232C43.2065 56.6034 43.1526 56.6569 43.0719 56.6836C42.9978 56.8911 42.8633 57.0514 42.6685 57.1646C42.5943 57.3721 42.4598 57.5324 42.265 57.6456C42.176 57.797 42.0684 57.9305 41.9423 58.0464C41.4316 58.6339 40.8936 59.1951 40.3284 59.7299C39.7071 60.4274 39.0347 61.0687 38.3112 61.6539C38.3164 61.6188 38.303 61.592 38.2708 61.5737C38.0558 61.6518 38.0424 61.7053 38.2305 61.734C38.2036 61.8142 38.1498 61.8677 38.0691 61.8944C37.9292 62.1108 37.7408 62.2711 37.5043 62.3754C36.8071 63.0412 36.1077 63.7093 35.4063 64.3795C35.0305 64.8596 34.6271 65.3139 34.1959 65.7424C33.8461 66.224 33.4964 66.705 33.1469 67.1853C32.7641 67.8657 32.401 68.5605 32.0576 69.2697C32.1291 66.9986 32.5729 64.8074 33.389 62.696C33.7106 61.6036 34.141 60.5614 34.6801 59.5695C35.2621 58.1545 35.8269 56.7382 36.3746 55.3207C36.8063 53.9242 37.2367 52.5346 37.6656 51.1521C37.6941 50.7983 37.7613 50.4509 37.8674 50.1099C37.8942 50.1901 37.9212 50.2703 37.9481 50.3504C37.987 49.3958 38.1349 48.4605 38.3919 47.5446C38.367 47.3503 38.394 47.1632 38.4726 46.9834C38.5949 47.088 38.6486 47.0479 38.6339 46.8632C38.6056 46.6144 38.5653 46.6277 38.5129 46.9033C38.6502 45.042 38.9864 43.225 39.5215 41.452C39.923 39.8787 40.5282 38.3822 41.3371 36.9626C41.4137 36.8349 41.5077 36.7281 41.6195 36.642C41.6445 36.7412 41.6849 36.7412 41.7405 36.642C41.7964 36.5669 41.7829 36.5135 41.7002 36.4817C41.7204 36.3074 41.8011 36.1737 41.9423 36.0808C42.23 35.5546 42.5796 35.0736 42.9913 34.6378C43.1492 34.3739 43.3375 34.1334 43.5561 33.9163C44.0671 33.2483 44.6589 32.6604 45.3313 32.1527C45.3582 32.0725 45.412 32.019 45.4927 31.9923C45.8525 31.6398 46.2559 31.3459 46.703 31.1105C46.8669 30.9484 47.0553 30.8148 47.2679 30.7097C47.3497 30.6156 47.4573 30.5622 47.5906 30.5493C48.5843 29.8412 49.6601 29.3602 50.8183 29.1064C51.8921 28.6526 53.0218 28.372 54.2073 28.2646C55.7039 28.0991 57.1833 28.1392 58.6453 28.3849ZM63.7288 29.908C63.7288 29.8813 63.7288 29.8545 63.7288 29.8278C63.8622 29.8407 63.9698 29.8941 64.0516 29.9882C63.9709 29.9882 63.8902 29.9882 63.8095 29.9882C63.7557 29.9882 63.7288 29.9615 63.7288 29.908ZM73.0083 39.528C73.1223 39.7459 73.1761 39.9864 73.1697 40.2495C73.1159 40.1426 73.0621 40.0357 73.0083 39.9288C73.0083 39.7952 73.0083 39.6616 73.0083 39.528ZM54.7721 48.3463C54.7183 48.3997 54.6646 48.4531 54.6108 48.5066C54.5301 48.5066 54.4494 48.5066 54.3687 48.5066C54.472 48.3919 54.6065 48.3384 54.7721 48.3463ZM97.8611 49.4686C97.9418 49.4686 98.0225 49.4686 98.1032 49.4686C98.0494 49.5755 97.9687 49.6556 97.8611 49.7091C97.8611 49.6556 97.8343 49.6289 97.7804 49.6289C97.8073 49.5755 97.8343 49.5221 97.8611 49.4686ZM92.4548 63.4977C92.401 63.471 92.3473 63.4442 92.2935 63.4175C92.3581 63.2337 92.4119 63.2604 92.4548 63.4977ZM92.4548 63.4977C92.5278 63.5545 92.5547 63.6347 92.5355 63.7382C92.4817 63.7115 92.428 63.6847 92.3741 63.658C92.401 63.6046 92.428 63.5512 92.4548 63.4977ZM50.3341 75.0416C50.4148 75.0683 50.4686 75.1218 50.4955 75.202C50.4417 75.202 50.388 75.202 50.3341 75.202C50.3341 75.1485 50.3341 75.0951 50.3341 75.0416ZM70.2648 85.6236C70.6796 85.6525 71.083 85.7327 71.4752 85.8641C71.5387 85.9927 71.6462 86.0461 71.7979 86.0244C71.7979 86.0511 71.7979 86.0779 71.7979 86.1046C71.698 86.1294 71.698 86.1695 71.7979 86.2248C71.9146 86.3289 72.0222 86.3423 72.1207 86.2649C72.2183 86.2996 72.299 86.353 72.3628 86.4253C72.2783 86.4716 72.2918 86.525 72.4031 86.5856C72.4353 86.5673 72.4487 86.5405 72.4435 86.5054C72.6801 86.6096 72.8684 86.77 73.0083 86.9864C73.3033 87.2512 73.5184 87.5719 73.6538 87.9484C73.627 87.9484 73.6 87.9484 73.5731 87.9484C73.4496 88.0627 73.4765 88.116 73.6538 88.1087C73.6201 88.1666 73.5664 88.2067 73.4925 88.229C73.6262 88.2871 73.7069 88.247 73.7345 88.1087C73.9743 88.5563 74.1357 89.0373 74.2187 89.5517C74.2334 89.7194 74.2064 89.8797 74.138 90.0327C74.1666 90.1147 74.2204 90.1681 74.2994 90.1931C74.2994 90.4873 74.2994 90.7807 74.2994 91.0749C74.2375 91.1286 74.1837 91.196 74.138 91.2753C74.209 91.3843 74.2359 91.5046 74.2187 91.6361C74.1582 92.1443 74.0237 92.6253 73.8152 93.0791C73.8225 93.2915 73.7687 93.4791 73.6538 93.6402C73.5155 94.1605 73.3004 94.6415 73.0083 95.0832C73.0189 95.0239 73.0054 94.9702 72.968 94.9229C72.8632 95.0391 72.8498 95.1457 72.9276 95.2435C72.6268 95.9755 72.2233 96.6433 71.7173 97.2477C71.6748 97.3864 71.5941 97.493 71.4752 97.5684C71.4483 97.4617 71.4214 97.4617 71.3945 97.5684C71.3138 97.5684 71.2331 97.5684 71.1524 97.5684C71.2062 97.6221 71.26 97.675 71.3138 97.7287C71.2062 97.7552 71.2062 97.7824 71.3138 97.8089C71.2634 97.9892 71.1559 98.1231 70.991 98.2097C70.7019 98.6843 70.3523 99.1116 69.942 99.4924C69.5663 99.9726 69.1628 100.427 68.7317 100.855C68.7048 100.935 68.651 100.989 68.5703 101.016C68.5108 100.834 68.4301 100.821 68.3282 100.975C68.3721 101.033 68.4259 101.073 68.4896 101.096C68.4089 101.202 68.3282 101.31 68.2475 101.416C68.2207 101.416 68.1937 101.416 68.1668 101.416C68.1721 101.381 68.1587 101.355 68.1265 101.336C68.0323 101.43 67.9382 101.523 67.8441 101.617C67.8625 101.649 67.8894 101.662 67.9248 101.657C67.9248 101.711 67.9248 101.763 67.9248 101.817C67.871 101.844 67.8172 101.871 67.7634 101.897C67.7365 101.978 67.6827 102.031 67.602 102.058C67.4675 102.244 67.3061 102.405 67.1179 102.539C67.091 102.619 67.0372 102.673 66.9565 102.699C66.9617 102.664 66.9483 102.637 66.9161 102.619C66.83 102.674 66.7359 102.714 66.6337 102.739C66.7102 102.778 66.7909 102.791 66.8758 102.779C66.7144 102.993 66.5262 103.18 66.311 103.34C66.3162 103.305 66.3028 103.279 66.2706 103.26C66.0556 103.338 66.0422 103.392 66.2303 103.421C66.1496 103.554 66.042 103.661 65.9075 103.741C65.8609 103.657 65.8071 103.671 65.7461 103.781C65.7645 103.813 65.7915 103.827 65.8268 103.821C65.7999 103.902 65.7461 103.955 65.6654 103.982C65.6188 103.897 65.565 103.911 65.504 104.022C65.5224 104.054 65.5494 104.067 65.5847 104.062C65.395 104.371 65.1259 104.572 64.7778 104.663C64.8258 104.7 64.8796 104.714 64.9392 104.703C64.3949 105.203 63.8571 105.724 63.3254 106.266C63.1726 106.379 63.0112 106.472 62.8412 106.547C62.1231 106.097 61.4507 105.589 60.824 105.024C59.5904 104.039 58.407 102.996 57.2736 101.897C57.358 101.851 57.3446 101.798 57.2332 101.737C57.201 101.755 57.1876 101.782 57.1929 101.817C56.5232 101.286 55.9046 100.697 55.337 100.054C55.4215 100.007 55.408 99.9541 55.2966 99.8932C55.2644 99.9116 55.251 99.9381 55.2563 99.9734C55.0615 99.8603 54.927 99.7 54.8528 99.4924C54.3398 99.0058 53.8557 98.4446 53.4004 97.8089C52.8139 97.0826 52.3567 96.3611 52.0286 95.6444C51.9848 95.6396 51.958 95.6131 51.948 95.5642C52.0079 95.5097 52.0616 95.456 52.1093 95.4039C52.0027 95.4175 51.9085 95.3911 51.8269 95.3237C51.6509 94.9245 51.4895 94.5501 51.3428 94.2014C51.2069 93.8631 51.1127 93.516 51.0604 93.1592C50.9577 92.8241 50.877 92.4762 50.8183 92.1171C50.8044 92.0377 50.8314 91.984 50.899 91.9567C50.8242 91.4004 50.7973 90.8392 50.8183 90.2732C51.0334 89.0307 51.5982 87.9752 52.5128 87.1067C52.6665 86.9928 52.8279 86.8992 52.9969 86.8261C53.2534 86.605 53.5493 86.4447 53.8845 86.3451C54.0175 86.2307 54.1789 86.1639 54.3687 86.1447C54.7727 86.0712 55.1762 86.0044 55.579 85.9443C55.9556 85.971 56.3321 85.9977 56.7087 86.0244C57.7877 86.2128 58.7022 86.6938 59.4522 87.4674C59.5867 87.5476 59.6943 87.6544 59.775 87.7881C59.9398 87.8746 60.0474 88.0082 60.0977 88.1889C60.4354 88.5263 60.6775 88.9271 60.824 89.3914C60.9187 89.4727 60.9724 89.5796 60.9853 89.7121C61.1842 90.0282 61.3186 90.3756 61.3888 90.7542C61.4642 90.84 61.4911 90.9466 61.4695 91.0749C61.1939 91.2962 61.2342 91.5094 61.5905 91.7162C61.628 91.6689 61.6414 91.6152 61.6309 91.5559C61.8712 92.158 62.3016 92.3856 62.9219 92.2373C63.2247 91.9591 63.413 91.6248 63.4868 91.2352C63.6236 90.5602 63.8387 89.9188 64.1323 89.3112C64.293 88.8311 64.535 88.4035 64.8585 88.0286C64.8533 88.0637 64.8667 88.0905 64.8989 88.1087C65.1139 88.0307 65.1273 87.9772 64.9392 87.9484C65.401 87.2233 66.0196 86.6621 66.7951 86.2649C67.8782 85.6382 69.0348 85.4244 70.2648 85.6236Z" fill="url(#paint1_linear_2003_838)"/>
<path opacity="0.995" fill-rule="evenodd" clip-rule="evenodd" d="M68.2073 85.2015C68.7415 85.2107 69.2749 85.2344 69.8076 85.2727C70.5641 85.3922 71.243 85.6296 71.8443 85.9848C72.6202 86.507 73.2749 87.1479 73.8083 87.9075C74.6218 89.4204 74.937 91.0345 74.7539 92.7498C74.5682 93.6898 74.3015 94.6155 73.9538 95.527C73.7229 95.8845 73.5289 96.264 73.3719 96.6663C73.2446 96.749 73.1718 96.8679 73.1536 97.0224C72.9557 97.2638 72.786 97.5251 72.6445 97.8057C72.5959 97.8057 72.5717 97.8292 72.5717 97.8769C71.9349 98.72 71.2802 99.5511 70.6077 100.369C70.535 100.393 70.4864 100.44 70.4622 100.512C70.1681 100.728 69.9256 100.99 69.7348 101.295C69.2956 101.654 68.9077 102.057 68.571 102.506C67.4576 103.619 66.3422 104.735 65.2249 105.852C65.1036 105.924 65.0066 106.018 64.9339 106.137C64.8126 106.209 64.7157 106.303 64.6429 106.422C64.5217 106.493 64.4247 106.588 64.352 106.707C64.0253 106.991 63.7101 107.288 63.4063 107.597C63.1236 107.813 62.8084 107.884 62.4607 107.811C62.2564 107.717 62.0625 107.61 61.8788 107.49C61.7255 107.331 61.5558 107.189 61.3696 107.063C60.4978 106.305 59.6007 105.569 58.6782 104.856C58.6227 104.73 58.5257 104.659 58.3872 104.642C58.2622 104.448 58.0924 104.306 57.878 104.215C57.878 104.167 57.8538 104.143 57.8053 104.143C57.3152 103.64 56.7817 103.188 56.205 102.79C56.108 102.648 55.9868 102.529 55.8413 102.434C55.7928 102.34 55.72 102.268 55.6231 102.221C55.5988 102.15 55.5503 102.102 55.4776 102.078C55.1896 101.818 54.8986 101.557 54.6047 101.295C54.3958 100.971 54.1291 100.686 53.8045 100.44C53.6611 100.183 53.4671 99.9698 53.2226 99.7996C53.1984 99.7049 53.1741 99.7049 53.1499 99.7996C53.0418 99.5261 52.8721 99.289 52.6407 99.0875C52.6234 98.9522 52.5506 98.8568 52.4224 98.8027C52.2578 98.4566 52.0396 98.1475 51.7678 97.8769C51.7401 97.7751 51.6673 97.716 51.5496 97.6989C51.6422 97.6291 51.6422 97.57 51.5496 97.5209C51.5621 97.4504 51.5378 97.4027 51.4768 97.3785C51.3841 97.1463 51.263 96.9327 51.1131 96.7376C51.0773 96.5724 51.0046 96.4299 50.8949 96.3103C50.8248 96.0796 50.7279 95.8659 50.6039 95.6694C50.5097 95.2742 50.3884 94.8946 50.2402 94.53C50.1823 94.1512 50.1338 93.7717 50.0947 93.3907C50.0947 92.6551 50.0947 91.9188 50.0947 91.1832C50.0829 91.0153 50.095 90.8492 50.1311 90.6847C50.2431 90.2253 50.3765 89.7743 50.5312 89.3317C50.8333 88.788 51.1728 88.2658 51.5496 87.7651C51.8163 87.5515 52.0587 87.3141 52.277 87.053C52.4976 86.945 52.6916 86.8026 52.8589 86.6257C52.9311 86.638 52.9795 86.6142 53.0044 86.5545C53.1155 86.5597 53.1882 86.5122 53.2226 86.4121C53.5954 86.2296 53.9833 86.0872 54.3865 85.9848C54.6964 85.9565 54.9874 85.8853 55.2593 85.7712C56.3628 85.5519 57.4539 85.635 58.5327 86.0204C58.8979 86.1756 59.2616 86.3299 59.6238 86.4833C60.7538 87.1861 61.6267 88.1237 62.2425 89.2961C62.4754 89.433 62.4996 89.4093 62.3152 89.2249C62.37 89.119 62.4306 89.1071 62.4971 89.1893C62.5787 89.0535 62.6393 88.9111 62.6789 88.762C62.9636 88.3712 63.2302 87.9677 63.4791 87.5515C63.6973 87.3853 63.8913 87.1954 64.061 86.9818C64.1338 86.9581 64.1823 86.9106 64.2065 86.8393C64.345 86.7096 64.4905 86.591 64.6429 86.4833C65.3436 85.9742 66.1195 85.6182 66.9707 85.4151C67.1885 85.4298 67.3825 85.3824 67.5526 85.2727C67.7629 85.2084 67.9811 85.1847 68.2073 85.2015ZM69.3711 87.1954C69.745 87.2211 70.1087 87.2923 70.4622 87.409C70.5195 87.5233 70.6164 87.5707 70.7532 87.5515C70.7532 87.5752 70.7532 87.5989 70.7532 87.6227C70.6631 87.6447 70.6631 87.6803 70.7532 87.7295C70.8584 87.8219 70.9553 87.8338 71.0442 87.7651C71.1322 87.7958 71.2049 87.8433 71.2624 87.9075C71.1862 87.9487 71.1984 87.9961 71.2987 88.0499C71.3278 88.0337 71.3398 88.0099 71.3351 87.9787C71.5484 88.0713 71.7182 88.2137 71.8443 88.406C72.1102 88.6412 72.3042 88.926 72.4262 89.2605C72.402 89.2605 72.3777 89.2605 72.3535 89.2605C72.2421 89.362 72.2664 89.4094 72.4262 89.4029C72.3958 89.4543 72.3474 89.4899 72.2808 89.5097C72.4013 89.5614 72.474 89.5258 72.499 89.4029C72.7152 89.8005 72.8606 90.2277 72.9354 90.6847C72.9487 90.8336 72.9244 90.976 72.8627 91.112C72.8885 91.1847 72.937 91.2322 73.0082 91.2544C73.0082 91.5157 73.0082 91.7763 73.0082 92.0377C72.9524 92.0854 72.9039 92.1452 72.8627 92.2157C72.9267 92.3126 72.951 92.4194 72.9354 92.5362C72.8809 92.9876 72.7597 93.4149 72.5717 93.8179C72.5783 94.0066 72.5298 94.1733 72.4262 94.3164C72.3016 94.7786 72.1076 95.2058 71.8443 95.5982C71.8538 95.5455 71.8417 95.4978 71.8079 95.4558C71.7135 95.559 71.7014 95.6537 71.7716 95.7406C71.5004 96.3908 71.1367 96.9839 70.6805 97.5209C70.6422 97.6441 70.5694 97.7388 70.4622 97.8057C70.438 97.711 70.4137 97.711 70.3895 97.8057C70.3167 97.8057 70.244 97.8057 70.1713 97.8057C70.2198 97.8534 70.2682 97.9004 70.3167 97.9481C70.2198 97.9716 70.2198 97.9958 70.3167 98.0193C70.2714 98.1796 70.1744 98.2985 70.0258 98.3754C69.7651 98.797 69.45 99.1765 69.0801 99.5148C68.7414 99.9413 68.3777 100.345 67.989 100.725C67.9648 100.797 67.9163 100.844 67.8435 100.868C67.7899 100.707 67.7171 100.695 67.6253 100.832C67.6649 100.883 67.7134 100.919 67.7708 100.939C67.6981 101.034 67.6253 101.129 67.5526 101.224C67.5284 101.224 67.5041 101.224 67.4798 101.224C67.4846 101.192 67.4725 101.169 67.4435 101.153C67.3586 101.236 67.2738 101.319 67.1889 101.402C67.2055 101.43 67.2298 101.442 67.2616 101.437C67.2616 101.485 67.2616 101.532 67.2616 101.58C67.2131 101.603 67.1647 101.628 67.1161 101.651C67.0919 101.722 67.0434 101.77 66.9707 101.793C66.8494 101.959 66.7039 102.102 66.5342 102.221C66.51 102.292 66.4615 102.34 66.3887 102.363C66.3935 102.332 66.3814 102.308 66.3524 102.292C66.2747 102.341 66.1899 102.377 66.0978 102.399C66.1667 102.433 66.2395 102.445 66.316 102.434C66.1705 102.625 66.0008 102.79 65.8068 102.933C65.8115 102.902 65.7995 102.878 65.7704 102.862C65.5766 102.931 65.5645 102.978 65.7341 103.004C65.6613 103.123 65.5644 103.218 65.4431 103.289C65.4011 103.214 65.3526 103.226 65.2976 103.324C65.3142 103.353 65.3385 103.365 65.3704 103.36C65.3461 103.431 65.2976 103.479 65.2249 103.503C65.1828 103.428 65.1344 103.44 65.0794 103.538C65.096 103.567 65.1203 103.579 65.1521 103.574C64.981 103.849 64.7385 104.027 64.4247 104.108C64.4679 104.141 64.5164 104.153 64.5702 104.143C64.0796 104.588 63.5947 105.051 63.1154 105.532C62.9776 105.632 62.8321 105.715 62.6789 105.781C62.0315 105.382 61.4254 104.93 60.8604 104.428C59.7484 103.553 58.6816 102.627 57.6598 101.651C57.736 101.61 57.7238 101.563 57.6234 101.509C57.5944 101.525 57.5823 101.549 57.5871 101.58C56.9834 101.108 56.4257 100.585 55.914 100.013C55.9902 99.9719 55.978 99.9249 55.8776 99.8708C55.8486 99.8872 55.8365 99.9107 55.8413 99.942C55.6657 99.8416 55.5444 99.6992 55.4776 99.5148C55.0151 99.0825 54.5786 98.584 54.1682 98.0193C53.6396 97.3742 53.2274 96.7333 52.9316 96.0967C52.8921 96.0924 52.8679 96.0689 52.8589 96.0255C52.9129 95.977 52.9614 95.9293 53.0044 95.883C52.9082 95.8951 52.8233 95.8716 52.7498 95.8118C52.5911 95.4572 52.4457 95.1246 52.3133 94.8149C52.1908 94.5144 52.106 94.206 52.0587 93.8892C51.9662 93.5915 51.8935 93.2824 51.8405 92.9634C51.828 92.8929 51.8523 92.8452 51.9133 92.821C51.8458 92.3268 51.8216 91.8283 51.8405 91.3256C52.0344 90.2218 52.5436 89.2843 53.3681 88.5128C53.5067 88.4116 53.6521 88.3285 53.8045 88.2636C54.0357 88.0672 54.3024 87.9247 54.6047 87.8363C54.7246 87.7347 54.87 87.6754 55.0411 87.6583C55.4053 87.593 55.769 87.5336 56.1322 87.4802C56.4717 87.504 56.8111 87.5277 57.1506 87.5515C58.1233 87.7188 58.9477 88.1461 59.6238 88.8332C59.7451 88.9044 59.842 88.9994 59.9148 89.1181C60.0634 89.1949 60.1603 89.3136 60.2057 89.4741C60.5102 89.7738 60.7284 90.1298 60.8604 90.5423C60.9458 90.6145 60.9943 90.7094 61.0059 90.8271C61.1851 91.108 61.3063 91.4165 61.3696 91.7528C61.4375 91.829 61.4618 91.9238 61.4423 92.0377C61.1939 92.2342 61.2302 92.4236 61.5514 92.6074C61.5852 92.5654 61.5973 92.5176 61.5878 92.465C61.8044 92.9997 62.1924 93.202 62.7517 93.0702C63.0246 92.8231 63.1944 92.5262 63.2609 92.1801C63.3842 91.5805 63.5782 91.0108 63.8428 90.4711C63.9876 90.0446 64.2058 89.6648 64.4975 89.3317C64.4927 89.3629 64.5048 89.3867 64.5338 89.4029C64.7277 89.3336 64.7398 89.2861 64.5702 89.2605C64.9865 88.6164 65.5441 88.1179 66.2432 87.7651C67.2196 87.2084 68.2622 87.0184 69.3711 87.1954Z" fill="url(#paint2_linear_2003_838)"/>
<defs>
<linearGradient id="paint0_linear_2003_838" x1="-14" y1="-12.9097" x2="156.761" y2="165.043" gradientUnits="userSpaceOnUse">
<stop offset="0.14954" stop-color="#AF91FF"/>
<stop offset="1" stop-color="#4820B3"/>
</linearGradient>
<linearGradient id="paint1_linear_2003_838" x1="40.0132" y1="22.5049" x2="92.0144" y2="120.585" gradientUnits="userSpaceOnUse">
<stop stop-color="#CBB7FF"/>
<stop offset="1" stop-color="white"/>
</linearGradient>
<linearGradient id="paint2_linear_2003_838" x1="78.3002" y1="109.187" x2="46.2621" y2="84.9899" gradientUnits="userSpaceOnUse">
<stop stop-color="#BEA6FF"/>
<stop offset="1" stop-color="white"/>
</linearGradient>
</defs>
</svg>
